<svg xmlns="http://www.w3.org/2000/svg" shape-rendering="geometricPrecision" text-rendering="geometricPrecision" image-rendering="optimizeQuality" fill-rule="evenodd" clip-rule="evenodd" viewBox="0 0 512 512"><path d="m378.19,435.03s-15.8,-18.87 -28.96,-35.1c57.47,-16.23 79.41,-51.77 79.41,-51.77c-17.99,11.85 -35.1,20.18 -50.45,25.88c-21.94,9.22 -43,14.92 -63.62,18.87c-42.12,7.9 -80.73,5.7 -113.63,-0.44c-25.01,-4.82 -46.51,-11.4 -64.5,-18.86c-10.09,-3.95 -21.06,-8.78 -32.02,-14.92c-1.32,-0.88 -2.64,-1.32 -3.95,-2.19c-0.88,-0.44 -1.32,-0.88 -1.76,-0.88c-7.89,-4.39 -12.28,-7.46 -12.28,-7.46s21.06,34.66 76.78,51.33c-13.17,16.67 -29.4,35.98 -29.4,35.98c-96.96,-3.08 -133.81,-66.25 -133.81,-66.25c0,-139.96 63.18,-253.59 63.18,-253.59c63.17,-46.94 122.84,-45.62 122.84,-45.62l4.39,5.26c-78.97,22.37 -114.95,57.03 -114.95,57.03s9.65,-5.26 25.89,-12.28c46.94,-20.62 84.23,-25.89 99.59,-27.64c2.63,-0.44 4.83,-0.88 7.46,-0.88c26.76,-3.51 57.03,-4.39 88.62,-0.88c41.68,4.83 86.43,17.11 132.06,41.68c0,0 -34.66,-32.9 -109.25,-55.28l6.15,-7.02s60.1,-1.31 122.84,45.63c0,0 63.18,113.63 63.18,253.59c0,-0.44 -36.85,62.74 -133.81,65.81l0,0zm-43.88,-203.13c-25,0 -44.75,21.49 -44.75,48.26c0,26.76 20.18,48.26 44.75,48.26c25.01,0 44.75,-21.5 44.75,-48.26c0,-26.77 -20.18,-48.26 -44.75,-48.26zm-160.13,0c-25.01,0 -44.75,21.49 -44.75,48.26c0,26.76 20.18,48.26 44.75,48.26c25,0 44.75,-21.5 44.75,-48.26c0.44,-26.77 -19.75,-48.26 -44.75,-48.26z" fill="#fff"/></svg>