<?xml version="1.0" encoding="utf-8"?>
<svg xmlns="http://www.w3.org/2000/svg" viewBox="0 0 100 100" x="0px" y="0px">
  <defs>
    <style>.cls-1{fill:none;}</style>
  </defs>
  <g>
    <path class="cls-1" d="M34.47,25.41c.25,1.3.51,2.6.79,3.9.17.83.35,1.67.54,2.5.24,1.1.48,2.21.71,3.31.36,1.8.7,3.49,2.32,4.29a5.75,5.75,0,0,0,2.77.47H58.4a5.81,5.81,0,0,0,2.77-.46c1.61-.81,2-2.5,2.33-4.3.23-1.16.49-2.31.74-3.47l.51-2.34c.17-.81.33-1.63.49-2.44l.34-1.67a2.06,2.06,0,0,0-.15-1.62,2.76,2.76,0,0,0-2-.79h0l-.34,0c-2.2-.23-4.45-.38-6.44-.49L43,22.28c-1.91.11-4,.26-6.06.47l-.36,0h0a2.74,2.74,0,0,0-2,.79,2,2,0,0,0-.14,1.62Z"/>
    <path class="cls-1" d="M35.94,42.16A8,8,0,0,0,31,43.87c-.72.85-1.36,1.65-1.94,2.43-.15.2-.28.38-.4.56a7.83,7.83,0,0,0-.72,3.31,8,8,0,0,0,5.15,7.47h0a7.92,7.92,0,0,0,2.85.53h0a8,8,0,0,0,0-16Zm0,12.46a5,5,0,1,1,5-5A5,5,0,0,1,35.94,54.62Z"/>
    <path class="cls-1" d="M92.18,50.73A100.08,100.08,0,0,0,88.53,36a80.12,80.12,0,0,0-4.09-9.82.77.77,0,0,0-.46-.39l-1.09-.33h-.06a73.43,73.43,0,0,0-10.47-1.84l-.89-.11a6,6,0,0,0-1.19-.05,1.83,1.83,0,0,1-.22.16,4.3,4.3,0,0,0-1.42,2.45c-.25.92-.45,1.88-.63,2.8l-.16.79c-.34,1.62-.68,3.24-1,4.86v.07c-.1.48-.72,3.57.25,5.3a2.71,2.71,0,0,0,.24.35c.55.69,1.12,1.36,1.69,2l.69.83h0l0,0c.61.73,1.33,1.6,2,2.52l.28.38.14.2,0,.07c.3.42.58.85.86,1.28l.51.74c.29.46.58.93.86,1.4l.43.71c.3.49.57,1,.85,1.5.12.23.25.44.37.67.28.5.54,1,.8,1.54l.35.67c.26.52.51,1,.76,1.57l.33.68c.24.52.47,1,.7,1.55l.33.71L80,60.79l.37.85c.32.75.63,1.51.94,2.25,1.54,3.74,2.76,7.67,3.94,11.46l.06.18c.34,1.11.84,1.75,1.49,1.91a1.37,1.37,0,0,0,.5,0,3.1,3.1,0,0,0,1.22-.41c2.48-1.4,3.51-4.24,3.94-6.39,1.16-5.77,1.07-12.29-.28-19.94Zm-23-22,.39-1.82a1.06,1.06,0,0,1,2.07.45l-.4,1.82a1,1,0,0,1-1,.83.82.82,0,0,1-.22,0A1.06,1.06,0,0,1,69.22,28.68ZM71.74,40a2.43,2.43,0,1,1,2.43-2.43A2.43,2.43,0,0,1,71.74,40Zm5.48,5.47a2.43,2.43,0,1,1,2.43-2.43A2.42,2.42,0,0,1,77.22,45.51Zm0-10.95a2.43,2.43,0,1,1,2.43-2.43A2.43,2.43,0,0,1,77.22,34.56ZM82.69,40a2.43,2.43,0,1,1,2.43-2.43A2.42,2.42,0,0,1,82.69,40Z"/>
    <path class="cls-1" d="M71.34,46.82l-.11-.15L71,46.31c-.66-.89-1.35-1.73-1.94-2.44a7.93,7.93,0,0,0-5-1.71,8,8,0,0,0,0,16h0a7.92,7.92,0,0,0,2.85-.53h0a8.08,8.08,0,0,0,5.16-7.49,8,8,0,0,0-.73-3.33Zm-7.27,7.8a5,5,0,1,1,5-5A5,5,0,0,1,64.07,54.62Z"/>
    <path class="cls-1" d="M30.27,43.18l.68-.82c.58-.69,1.17-1.38,1.74-2.09,1.15-1.44.73-4.61.47-5.7v0c-.33-1.62-.66-3.24-1-4.85L32,29c-.2-1-.4-2-.66-2.92a4.37,4.37,0,0,0-1.42-2.45l-.28-.19h-.05c-.17,0-.64,0-1.07.08l-.81.09A75.58,75.58,0,0,0,17.2,25.49a11.28,11.28,0,0,0-1.17.34.78.78,0,0,0-.46.39A80,80,0,0,0,11.46,36,100.16,100.16,0,0,0,7.83,50.73c-1.35,7.62-1.44,14.14-.27,19.94.42,2.15,1.44,5,3.93,6.39a3.23,3.23,0,0,0,1.17.41h.14a1.64,1.64,0,0,0,.43,0c.63-.16,1.13-.8,1.47-1.91l.15-.48c1.16-3.7,2.35-7.51,3.84-11.16,2.47-6,5.27-12.23,9.11-17.57.13-.19.28-.39.43-.59C28.85,44.89,29.51,44.06,30.27,43.18ZM29.14,26.05a1.05,1.05,0,0,1,1.25.81l.4,1.82A1.06,1.06,0,0,1,30,29.94a.82.82,0,0,1-.22,0,1.06,1.06,0,0,1-1-.83l-.39-1.82A1.07,1.07,0,0,1,29.14,26.05ZM20.45,38,19.34,39a1.14,1.14,0,0,1-.68.3l-1.42.09h-.08a1.09,1.09,0,0,1-.71-.26,1.12,1.12,0,0,1-.37-.68l0-.19a5.08,5.08,0,0,1,0-1.35l0-.19a1.12,1.12,0,0,1,.37-.68,1.08,1.08,0,0,1,.79-.26l1.42.1a1,1,0,0,1,.68.3l1.11,1.06A.49.49,0,0,1,20.45,38Zm4.16,5.3a1.09,1.09,0,0,1-.26.71,1.07,1.07,0,0,1-.68.37l-.19,0a5.08,5.08,0,0,1-1.35,0l-.19,0A1.09,1.09,0,0,1,21,43.17l.1-1.42a1.06,1.06,0,0,1,.3-.68L22.46,40a.47.47,0,0,1,.69,0l1.07,1.1a1.17,1.17,0,0,1,.3.68l.09,1.42Zm-.09-9.79a1.14,1.14,0,0,1-.3.68l-1.07,1.11a.49.49,0,0,1-.69,0L21.4,34.14a1,1,0,0,1-.3-.68L21,32V32a1.09,1.09,0,0,1,.26-.71,1.12,1.12,0,0,1,.68-.37l.19,0a5.08,5.08,0,0,1,1.35,0l.19,0a1.12,1.12,0,0,1,.68.37,1.08,1.08,0,0,1,.26.79ZM27,39.32a1.17,1.17,0,0,1-.68-.3L25.17,38a.47.47,0,0,1,0-.69l1.1-1.06a1.06,1.06,0,0,1,.68-.3l1.42-.1h.08a1.09,1.09,0,0,1,.71.26,1.07,1.07,0,0,1,.37.68l0,.19a5.09,5.09,0,0,1,0,1.35l0,.19a1.09,1.09,0,0,1-1.16.94Z"/>
    <path d="M93.16,50.56h0a100.89,100.89,0,0,0-3.68-14.84,79.23,79.23,0,0,0-4.15-9.95,1.83,1.83,0,0,0-1-.9l-1.15-.34H83V23.7a.51.51,0,0,0-.22-.42,15.46,15.46,0,0,0-5-2.14,17.66,17.66,0,0,0-5.85,0,.51.51,0,0,0-.42.44l-.11.94c-1.27-.14-1.55,0-1.65.09l-.15.1a59.79,59.79,0,0,0-6-.92h0l-.27,0H63.2C56.85,21.1,50.11,21,50,21s-6.81.07-13.16.72a3,3,0,0,0-.42.05h0a60.25,60.25,0,0,0-6,.92c-.05,0-.09-.07-.15-.1s-.38-.23-1.63-.09l-.11-.94a.52.52,0,0,0-.42-.44,17.67,17.67,0,0,0-5.85,0,15.35,15.35,0,0,0-5,2.14.49.49,0,0,0-.23.42v.81l0,0c-.54.13-.93.26-1.21.35a1.75,1.75,0,0,0-1,.9,81.27,81.27,0,0,0-4.16,9.94A102.25,102.25,0,0,0,6.85,50.56C5.47,58.3,5.39,65,6.58,70.87c.66,3.37,2.19,5.81,4.42,7.06a4.27,4.27,0,0,0,1.59.53h0l4,.61a2.42,2.42,0,0,0,.38,0,2.72,2.72,0,0,0,2.32-1.35,70.09,70.09,0,0,0,4.31-9.23c.65-1.58,1.31-3.22,2-4.8l.06-.13A9.13,9.13,0,0,1,28.09,60a7.58,7.58,0,0,1,4.73-1.39,8.91,8.91,0,0,0,3.11.56H64.08a8.8,8.8,0,0,0,3.09-.56A7.54,7.54,0,0,1,71.92,60a9.43,9.43,0,0,1,2.44,3.72c.73,1.59,1.41,3.25,2.06,4.85a69.42,69.42,0,0,0,4.3,9.18A2.72,2.72,0,0,0,83,79.1a2.3,2.3,0,0,0,.37,0l4-.61h0A4,4,0,0,0,89,77.93c2.22-1.25,3.75-3.69,4.43-7.06C94.61,65,94.52,58.33,93.16,50.56Zm-58.59-27a2.74,2.74,0,0,1,2-.79h0l.36,0C39,22.54,41,22.39,43,22.28l13.73,0c2,.11,4.24.26,6.44.49l.34,0h0a2.76,2.76,0,0,1,2,.79,2.06,2.06,0,0,1,.15,1.62l-.34,1.67c-.16.81-.32,1.63-.49,2.44l-.51,2.34c-.25,1.16-.51,2.31-.74,3.47-.37,1.8-.72,3.49-2.33,4.3a5.81,5.81,0,0,1-2.77.46H41.6a5.75,5.75,0,0,1-2.77-.47c-1.62-.8-2-2.49-2.32-4.29-.23-1.1-.47-2.21-.71-3.31-.19-.83-.37-1.67-.54-2.5-.28-1.3-.54-2.6-.79-3.9l0-.21A2,2,0,0,1,34.57,23.58Zm14.9,19.55a.55.55,0,0,1,1.1,0,.55.55,0,0,1-1.1,0Zm0,1.72A.55.55,0,1,1,49,44.3.58.58,0,0,1,49.51,44.85Zm1.57-.55a.55.55,0,1,1,0,1.1.55.55,0,1,1,0-1.1ZM18.69,63.89C17.2,67.54,16,71.35,14.85,75.05l-.15.48c-.34,1.11-.84,1.75-1.47,1.91a1.64,1.64,0,0,1-.43,0h-.14a3.23,3.23,0,0,1-1.17-.41C9,75.66,8,72.82,7.56,70.67c-1.17-5.8-1.08-12.32.27-19.94A100.16,100.16,0,0,1,11.46,36a80,80,0,0,1,4.11-9.82.78.78,0,0,1,.46-.39,11.28,11.28,0,0,1,1.17-.34,75.58,75.58,0,0,1,10.53-1.86l.81-.09c.43-.05.9-.08,1.07-.08h.05l.28.19a4.37,4.37,0,0,1,1.42,2.45c.26,1,.46,1.95.66,2.92l.14.68c.34,1.61.67,3.23,1,4.85v0c.26,1.09.68,4.26-.47,5.7-.57.71-1.16,1.4-1.74,2.09l-.68.82c-.76.88-1.42,1.71-2,2.55-.15.2-.3.4-.43.59C24,51.66,21.16,57.92,18.69,63.89Zm17.25-5.72h0a7.92,7.92,0,0,1-2.85-.53h0a8,8,0,0,1-5.15-7.47,7.83,7.83,0,0,1,.72-3.31c.12-.18.25-.36.4-.56.58-.78,1.22-1.58,1.94-2.43a8,8,0,1,1,4.95,14.3ZM45.8,43.68a.58.58,0,0,1-.55-.55.55.55,0,0,1,1.1,0A.58.58,0,0,1,45.8,43.68Zm1.05,1.72a.55.55,0,1,1,.55-.55A.58.58,0,0,1,46.85,45.4Zm.51-2.27a.55.55,0,0,1,1.1,0,.55.55,0,0,1-1.1,0Zm4.27,11.61H48.41a.5.5,0,0,1-.5-.5.5.5,0,0,1,.5-.5h3.22a.5.5,0,0,1,.5.5A.5.5,0,0,1,51.63,54.74Zm.5-11.06a.58.58,0,0,1-.55-.55.55.55,0,0,1,1.1,0A.58.58,0,0,1,52.13,43.68Zm1.06,1.72a.55.55,0,1,1,0-1.1.55.55,0,1,1,0,1.1Zm1.05-1.72a.59.59,0,0,1-.55-.55.6.6,0,0,1,.55-.55.59.59,0,0,1,.55.55A.58.58,0,0,1,54.24,43.68Zm12.68,14h0a7.92,7.92,0,0,1-2.85.53h0a8,8,0,0,1,0-16,7.93,7.93,0,0,1,5,1.71c.59.71,1.28,1.55,1.94,2.44l.27.36.11.15h0a8,8,0,0,1,.73,3.33A8.08,8.08,0,0,1,66.92,57.65Zm25.53,13c-.43,2.15-1.46,5-3.94,6.39a3.1,3.1,0,0,1-1.22.41,1.37,1.37,0,0,1-.5,0c-.65-.16-1.15-.8-1.49-1.91l-.06-.18c-1.18-3.79-2.4-7.72-3.94-11.46-.31-.74-.62-1.5-.94-2.25L80,60.79l-.61-1.42-.33-.71c-.23-.52-.46-1-.7-1.55L78,56.43c-.25-.52-.5-1-.76-1.57l-.35-.67c-.26-.52-.52-1-.8-1.54-.12-.23-.25-.44-.37-.67-.28-.5-.55-1-.85-1.5l-.43-.71c-.28-.47-.57-.94-.86-1.4l-.51-.74c-.28-.43-.56-.86-.86-1.28l0-.07-.14-.2-.28-.38c-.69-.92-1.41-1.79-2-2.52l0,0h0L69,42.31c-.57-.68-1.14-1.35-1.69-2a2.71,2.71,0,0,1-.24-.35c-1-1.73-.35-4.82-.25-5.3v-.07c.32-1.62.66-3.24,1-4.86L68,28.9c.18-.92.38-1.88.63-2.8a4.3,4.3,0,0,1,1.42-2.45,1.83,1.83,0,0,0,.22-.16,6,6,0,0,1,1.19.05l.89.11a73.43,73.43,0,0,1,10.47,1.84h.06l1.09.33a.77.77,0,0,1,.46.39A80.12,80.12,0,0,1,88.53,36a100.08,100.08,0,0,1,3.65,14.69h0C93.52,58.38,93.61,64.9,92.45,70.67Z"/>
    <path d="M28.72,29.13a1.06,1.06,0,0,0,1,.83.82.82,0,0,0,.22,0,1.06,1.06,0,0,0,.81-1.26l-.4-1.82a1.05,1.05,0,0,0-1.25-.81,1.07,1.07,0,0,0-.81,1.26Z"/>
    <circle cx="35.94" cy="49.58" r="5.04"/>
    <path d="M23.67,30.88l-.19,0a5.08,5.08,0,0,0-1.35,0l-.19,0a1.12,1.12,0,0,0-.68.37A1.09,1.09,0,0,0,21,32V32l.1,1.42a1,1,0,0,0,.3.68l1.06,1.11a.49.49,0,0,0,.69,0l1.07-1.11a1.14,1.14,0,0,0,.3-.68L24.61,32a1.08,1.08,0,0,0-.26-.79A1.12,1.12,0,0,0,23.67,30.88Z"/>
    <path d="M24.22,41.07,23.15,40a.47.47,0,0,0-.69,0l-1.06,1.1a1.06,1.06,0,0,0-.3.68L21,43.17a1.09,1.09,0,0,0,.94,1.16l.19,0a5.08,5.08,0,0,0,1.35,0l.19,0a1.07,1.07,0,0,0,.68-.37,1.09,1.09,0,0,0,.26-.71v-.08l-.09-1.42A1.17,1.17,0,0,0,24.22,41.07Z"/>
    <path d="M29.16,39.15a1.07,1.07,0,0,0,.37-.68l0-.19a5.09,5.09,0,0,0,0-1.35l0-.19a1.07,1.07,0,0,0-.37-.68,1.09,1.09,0,0,0-.71-.26h-.08L27,35.9a1.06,1.06,0,0,0-.68.3l-1.1,1.06a.47.47,0,0,0,0,.69L26.27,39a1.17,1.17,0,0,0,.68.3l1.42.09A1.08,1.08,0,0,0,29.16,39.15Z"/>
    <path d="M19.34,36.2a1,1,0,0,0-.68-.3l-1.42-.1a1.08,1.08,0,0,0-.79.26,1.12,1.12,0,0,0-.37.68l0,.19a5.08,5.08,0,0,0,0,1.35l0,.19a1.12,1.12,0,0,0,.37.68,1.09,1.09,0,0,0,.71.26h.08l1.42-.09a1.14,1.14,0,0,0,.68-.3L20.45,38a.49.49,0,0,0,0-.69Z"/>
    <path d="M70,29.94a.82.82,0,0,0,.22,0,1,1,0,0,0,1-.83l.4-1.82a1.06,1.06,0,0,0-2.07-.45l-.39,1.82A1.06,1.06,0,0,0,70,29.94Z"/>
    <circle cx="64.07" cy="49.58" r="5.04"/>
    <circle cx="77.22" cy="32.13" r="2.43"/>
    <path d="M77.22,40.66a2.43,2.43,0,1,0,2.43,2.42A2.42,2.42,0,0,0,77.22,40.66Z"/>
    <path d="M82.69,35.18a2.43,2.43,0,1,0,2.43,2.43A2.42,2.42,0,0,0,82.69,35.18Z"/>
    <path d="M71.74,35.18a2.43,2.43,0,1,0,2.43,2.43A2.42,2.42,0,0,0,71.74,35.18Z"/>
  </g>
</svg>